<svg width="201" height="48" viewBox="0 0 201 48" fill="none" xmlns="http://www.w3.org/2000/svg">
<path d="M54 4H58.352V26.4H54V4ZM55.76 13.216H60.816C61.6053 13.216 62.32 13.152 62.96 13.024C63.6213 12.896 64.1333 12.64 64.496 12.256C64.88 11.872 65.072 11.2853 65.072 10.496C65.072 9.728 64.88 9.152 64.496 8.768C64.1333 8.384 63.632 8.128 62.992 8C62.352 7.872 61.6267 7.808 60.816 7.808H55.76V4H60.816C62.4373 4 63.9093 4.192 65.232 4.576C66.576 4.93867 67.6427 5.6 68.432 6.56C69.2213 7.49867 69.616 8.82133 69.616 10.528C69.616 11.232 69.4773 11.9573 69.2 12.704C68.944 13.4293 68.5173 14.0587 67.92 14.592C67.344 15.104 66.544 15.3813 65.52 15.424V14.432C66.5013 14.4747 67.3973 14.7307 68.208 15.2C69.0187 15.648 69.6587 16.2667 70.128 17.056C70.5973 17.824 70.832 18.7093 70.832 19.712C70.832 21.4187 70.4373 22.7627 69.648 23.744C68.8587 24.7253 67.792 25.4187 66.448 25.824C65.1253 26.208 63.6533 26.4 62.032 26.4H55.76V22.592H62.032C62.8213 22.592 63.536 22.5173 64.176 22.368C64.8373 22.2187 65.3493 21.9413 65.712 21.536C66.096 21.1093 66.288 20.5013 66.288 19.712C66.288 18.944 66.096 18.368 65.712 17.984C65.3493 17.6 64.8373 17.344 64.176 17.216C63.536 17.0667 62.8213 16.992 62.032 16.992H55.76V13.216Z" fill="#222F30"/>
<path d="M74.78 26.4V4H90.3V7.808H79.132V13.248H89.02V17.024H79.132V22.592H90.428V26.4H74.78Z" fill="#222F30"/>
<path d="M94.301 4H111.165V6.496L108.669 7.808H94.301V4ZM97.501 26.4L93.981 23.904L107.677 4H111.165V6.496L97.501 26.4ZM111.293 26.4H93.981V23.904L96.477 22.592H111.293V26.4Z" fill="#222F30"/>
<path d="M115.246 4H119.598V26.4H115.246V4Z" fill="#222F30"/>
<path d="M132.82 26.4L126.804 4H131.284L136.948 26.4H132.82ZM138.964 26.4H134.804L140.5 4H144.948L138.964 26.4ZM124.276 4H128.468V26.4H124.276V4ZM143.316 4H147.508V26.4H143.316V4Z" fill="#222F30"/>
<path d="M152.181 26.4V4H167.701V7.808H156.533V13.248H166.421V17.024H156.533V22.592H167.829V26.4H152.181Z" fill="#222F30"/>
<path d="M184.309 26.4L173.749 4H178.486L189.077 26.4H184.309ZM172.118 4H176.31V26.4H172.118V4ZM186.486 4H190.71V26.4H186.486V4Z" fill="#222F30"/>
<path d="M195.335 4H199.687V26.4H195.335V4Z" fill="#222F30"/>
<path d="M54 34.624H55.526V44.424H54V34.624ZM54.77 39.51H57.388V40.854H54.77V39.51ZM57.388 39.51C57.948 39.51 58.424 39.4587 58.816 39.356C59.2173 39.2533 59.5207 39.076 59.726 38.824C59.9407 38.5627 60.048 38.1987 60.048 37.732C60.048 37.2653 59.9407 36.906 59.726 36.654C59.5207 36.3927 59.2173 36.2153 58.816 36.122C58.424 36.0193 57.948 35.968 57.388 35.968V34.624C58.256 34.624 59.0073 34.722 59.642 34.918C60.286 35.114 60.7807 35.436 61.126 35.884C61.4807 36.332 61.658 36.948 61.658 37.732C61.658 38.4973 61.4807 39.1087 61.126 39.566C60.7807 40.0233 60.286 40.3547 59.642 40.56C59.0073 40.756 58.256 40.854 57.388 40.854V39.51ZM54.77 34.624H57.388V35.968H54.77V34.624ZM57.85 39.902H59.376L61.574 44.424H59.838L57.85 39.902Z" fill="#222F30"/>
<path d="M66.3834 44.424V34.624H73.1174V35.982H67.9094V38.824H72.5574V40.168H67.9094V43.066H73.1734V44.424H66.3834Z" fill="#222F30"/>
<path d="M78.9364 41.302C78.9737 41.7033 79.0997 42.0487 79.3144 42.338C79.5384 42.6273 79.8277 42.8467 80.1824 42.996C80.5464 43.1453 80.9571 43.22 81.4144 43.22C82.0677 43.22 82.5951 43.0987 82.9964 42.856C83.4071 42.604 83.6124 42.2447 83.6124 41.778C83.6124 41.4607 83.5004 41.2133 83.2764 41.036C83.0524 40.8587 82.7537 40.7187 82.3804 40.616C82.0164 40.5133 81.6151 40.42 81.1764 40.336C80.7377 40.2427 80.2944 40.14 79.8464 40.028C79.4077 39.9067 79.0017 39.7433 78.6284 39.538C78.2644 39.3233 77.9704 39.0387 77.7464 38.684C77.5224 38.32 77.4104 37.8533 77.4104 37.284C77.4104 36.7427 77.5691 36.2573 77.8864 35.828C78.2131 35.3893 78.6657 35.044 79.2444 34.792C79.8231 34.5307 80.4997 34.4 81.2744 34.4C81.9837 34.4 82.6231 34.5447 83.1924 34.834C83.7711 35.114 84.2284 35.506 84.5644 36.01C84.9004 36.5047 85.0684 37.0787 85.0684 37.732H83.4304C83.3931 37.1253 83.1924 36.6587 82.8284 36.332C82.4737 35.996 81.9324 35.828 81.2044 35.828C80.4764 35.828 79.9257 35.9633 79.5524 36.234C79.1884 36.4953 79.0064 36.8453 79.0064 37.284C79.0064 37.6293 79.1184 37.9 79.3424 38.096C79.5664 38.2827 79.8604 38.432 80.2244 38.544C80.5977 38.6467 81.0037 38.74 81.4424 38.824C81.8904 38.8987 82.3337 38.9967 82.7724 39.118C83.2111 39.23 83.6124 39.3887 83.9764 39.594C84.3497 39.79 84.6484 40.0653 84.8724 40.42C85.1057 40.7653 85.2224 41.218 85.2224 41.778C85.2224 42.6927 84.8771 43.402 84.1864 43.906C83.5051 44.4007 82.5531 44.648 81.3304 44.648C80.5744 44.648 79.8931 44.5033 79.2864 44.214C78.6891 43.9153 78.2131 43.514 77.8584 43.01C77.5131 42.506 77.3264 41.9367 77.2984 41.302H78.9364Z" fill="#222F30"/>
<path d="M94.3732 44.648C93.3372 44.648 92.4552 44.4193 91.7272 43.962C91.0085 43.4953 90.4625 42.8747 90.0892 42.1C89.7158 41.3253 89.5292 40.462 89.5292 39.51C89.5292 38.81 89.6318 38.152 89.8372 37.536C90.0518 36.9107 90.3645 36.3647 90.7752 35.898C91.1858 35.4313 91.6898 35.0673 92.2872 34.806C92.8938 34.5353 93.5892 34.4 94.3732 34.4C95.1478 34.4 95.8338 34.5353 96.4312 34.806C97.0378 35.0673 97.5465 35.4313 97.9572 35.898C98.3678 36.3647 98.6758 36.9107 98.8812 37.536C99.0958 38.152 99.2032 38.81 99.2032 39.51C99.2032 40.462 99.0165 41.3253 98.6432 42.1C98.2698 42.8747 97.7238 43.4953 97.0052 43.962C96.2865 44.4193 95.4092 44.648 94.3732 44.648ZM94.3592 43.22C95.0965 43.22 95.7032 43.0473 96.1792 42.702C96.6552 42.3567 97.0098 41.904 97.2432 41.344C97.4765 40.7747 97.5932 40.1633 97.5932 39.51C97.5932 38.866 97.4765 38.264 97.2432 37.704C97.0098 37.144 96.6552 36.6913 96.1792 36.346C95.7032 36.0007 95.0965 35.828 94.3592 35.828C93.6312 35.828 93.0245 36.0007 92.5392 36.346C92.0632 36.6913 91.7085 37.144 91.4752 37.704C91.2418 38.264 91.1252 38.866 91.1252 39.51C91.1252 40.1633 91.2418 40.7747 91.4752 41.344C91.7085 41.904 92.0632 42.3567 92.5392 42.702C93.0245 43.0473 93.6312 43.22 94.3592 43.22Z" fill="#222F30"/>
<path d="M111.396 40.224C111.396 41.148 111.27 41.9413 111.018 42.604C110.766 43.2573 110.355 43.7613 109.786 44.116C109.226 44.4707 108.484 44.648 107.56 44.648C106.636 44.648 105.889 44.4707 105.32 44.116C104.76 43.7613 104.354 43.2573 104.102 42.604C103.85 41.9413 103.724 41.148 103.724 40.224H105.25C105.25 40.8587 105.315 41.4 105.446 41.848C105.586 42.296 105.824 42.6413 106.16 42.884C106.496 43.1173 106.962 43.234 107.56 43.234C108.157 43.234 108.624 43.1173 108.96 42.884C109.296 42.6413 109.529 42.296 109.66 41.848C109.8 41.4 109.87 40.8587 109.87 40.224H111.396ZM103.724 34.624H105.25V40.224H103.724V34.624ZM109.87 34.624H111.396V40.224H109.87V34.624Z" fill="#222F30"/>
<path d="M116.232 34.624H117.758V44.424H116.232V34.624ZM117.002 39.51H119.62V40.854H117.002V39.51ZM119.62 39.51C120.18 39.51 120.656 39.4587 121.048 39.356C121.449 39.2533 121.752 39.076 121.958 38.824C122.172 38.5627 122.28 38.1987 122.28 37.732C122.28 37.2653 122.172 36.906 121.958 36.654C121.752 36.3927 121.449 36.2153 121.048 36.122C120.656 36.0193 120.18 35.968 119.62 35.968V34.624C120.488 34.624 121.239 34.722 121.874 34.918C122.518 35.114 123.012 35.436 123.358 35.884C123.712 36.332 123.89 36.948 123.89 37.732C123.89 38.4973 123.712 39.1087 123.358 39.566C123.012 40.0233 122.518 40.3547 121.874 40.56C121.239 40.756 120.488 40.854 119.62 40.854V39.51ZM117.002 34.624H119.62V35.968H117.002V34.624ZM120.082 39.902H121.608L123.806 44.424H122.07L120.082 39.902Z" fill="#222F30"/>
<path d="M137.603 40.434C137.538 41.274 137.323 42.0113 136.959 42.646C136.604 43.2807 136.105 43.7753 135.461 44.13C134.826 44.4753 134.047 44.648 133.123 44.648C132.087 44.648 131.205 44.4193 130.477 43.962C129.758 43.4953 129.212 42.8747 128.839 42.1C128.466 41.3253 128.279 40.462 128.279 39.51C128.279 38.81 128.382 38.152 128.587 37.536C128.802 36.9107 129.114 36.3647 129.525 35.898C129.936 35.4313 130.44 35.0673 131.037 34.806C131.644 34.5353 132.339 34.4 133.123 34.4C134.439 34.4 135.466 34.75 136.203 35.45C136.95 36.1407 137.398 37.074 137.547 38.25H135.909C135.862 37.9327 135.778 37.6293 135.657 37.34C135.536 37.0507 135.368 36.794 135.153 36.57C134.938 36.3367 134.663 36.1547 134.327 36.024C134 35.8933 133.599 35.828 133.123 35.828C132.386 35.828 131.774 36.0007 131.289 36.346C130.813 36.6913 130.458 37.144 130.225 37.704C129.992 38.264 129.875 38.866 129.875 39.51C129.875 40.1633 129.992 40.7747 130.225 41.344C130.458 41.904 130.813 42.3567 131.289 42.702C131.774 43.0473 132.386 43.22 133.123 43.22C133.636 43.22 134.066 43.1453 134.411 42.996C134.766 42.8373 135.055 42.6273 135.279 42.366C135.503 42.1047 135.671 41.8107 135.783 41.484C135.895 41.148 135.965 40.798 135.993 40.434H137.603Z" fill="#222F30"/>
<path d="M142.161 44.424V34.624H148.895V35.982H143.687V38.824H148.335V40.168H143.687V43.066H148.951V44.424H142.161Z" fill="#222F30"/>
<path d="M154.714 41.302C154.751 41.7033 154.877 42.0487 155.092 42.338C155.316 42.6273 155.605 42.8467 155.96 42.996C156.324 43.1453 156.734 43.22 157.192 43.22C157.845 43.22 158.372 43.0987 158.774 42.856C159.184 42.604 159.39 42.2447 159.39 41.778C159.39 41.4607 159.278 41.2133 159.054 41.036C158.83 40.8587 158.531 40.7187 158.158 40.616C157.794 40.5133 157.392 40.42 156.954 40.336C156.515 40.2427 156.072 40.14 155.624 40.028C155.185 39.9067 154.779 39.7433 154.406 39.538C154.042 39.3233 153.748 39.0387 153.524 38.684C153.3 38.32 153.188 37.8533 153.188 37.284C153.188 36.7427 153.346 36.2573 153.664 35.828C153.99 35.3893 154.443 35.044 155.022 34.792C155.6 34.5307 156.277 34.4 157.052 34.4C157.761 34.4 158.4 34.5447 158.97 34.834C159.548 35.114 160.006 35.506 160.342 36.01C160.678 36.5047 160.846 37.0787 160.846 37.732H159.208C159.17 37.1253 158.97 36.6587 158.606 36.332C158.251 35.996 157.71 35.828 156.982 35.828C156.254 35.828 155.703 35.9633 155.33 36.234C154.966 36.4953 154.784 36.8453 154.784 37.284C154.784 37.6293 154.896 37.9 155.12 38.096C155.344 38.2827 155.638 38.432 156.002 38.544C156.375 38.6467 156.781 38.74 157.22 38.824C157.668 38.8987 158.111 38.9967 158.55 39.118C158.988 39.23 159.39 39.3887 159.754 39.594C160.127 39.79 160.426 40.0653 160.65 40.42C160.883 40.7653 161 41.218 161 41.778C161 42.6927 160.654 43.402 159.964 43.906C159.282 44.4007 158.33 44.648 157.108 44.648C156.352 44.648 155.67 44.5033 155.064 44.214C154.466 43.9153 153.99 43.514 153.636 43.01C153.29 42.506 153.104 41.9367 153.076 41.302H154.714Z" fill="#222F30"/>
<path d="M171.873 34.624H173.399V44.424H171.873V34.624ZM173.077 43.08H177.753V44.424H173.077V43.08Z" fill="#222F30"/>
<path d="M183.334 34.624H184.874V44.424H183.334V34.624ZM180.254 34.624H187.954V35.968H180.254V34.624Z" fill="#222F30"/>
<path d="M192.375 44.424V34.624H195.679C196.715 34.624 197.592 34.8387 198.311 35.268C199.029 35.688 199.575 36.2667 199.949 37.004C200.322 37.732 200.509 38.5673 200.509 39.51C200.509 40.462 200.322 41.3067 199.949 42.044C199.575 42.7813 199.029 43.3647 198.311 43.794C197.592 44.214 196.715 44.424 195.679 44.424H192.375ZM193.901 43.066H195.679C196.425 43.066 197.037 42.9073 197.513 42.59C197.989 42.2633 198.339 41.834 198.563 41.302C198.796 40.7607 198.913 40.1633 198.913 39.51C198.913 38.866 198.796 38.278 198.563 37.746C198.339 37.2047 197.989 36.7753 197.513 36.458C197.037 36.1407 196.425 35.982 195.679 35.982H193.901V43.066Z" fill="#222F30"/>
<g clip-path="url(#clip0_20_44)">
<path d="M1.07135 48H26.7173C34.4305 48 40.2996 45.1043 42.7488 40.1048C38.1415 38.1093 33.0709 37.0047 27.7467 37.0047C17.3769 37.0047 7.97047 41.1953 1.07157 48H1.07135Z" fill="#006633"/>
<path d="M6.10352e-05 47.1079V48H0.147747C7.11827 40.0299 16.9061 34.5914 27.7467 33.6395C33.5308 33.1314 39.0143 33.9557 43.9309 35.8571C43.9762 35.3976 44.0001 34.9278 44.0001 34.4466C44.0001 28.0023 41.1329 24.2415 34.9035 24.2415C19.3869 24.2415 6.02659 33.6212 0.000282786 47.1081L6.10352e-05 47.1079Z" fill="#4B8145"/>
<path d="M41.5533 19.8121C42.4051 18.1684 42.8774 16.1686 42.8774 13.773C42.8774 5.14291 35.8732 0 25.5225 0H-0.000366211V45.7425C6.02594 31.7261 19.386 21.1726 34.9028 19.8099C37.1711 19.6107 39.393 19.6175 41.5531 19.8119L41.5533 19.8121Z" fill="#69AA2C"/>
</g>
<defs>
<clipPath id="clip0_20_44">
<rect width="44" height="48" fill="white"/>
</clipPath>
</defs>
</svg>
