<svg width="15" height="14" viewBox="0 0 15 14" fill="none" xmlns="http://www.w3.org/2000/svg">
<path d="M8.92083 0.240188C8.84292 0.16331 8.75062 0.102531 8.64921 0.0613232C8.54781 0.0201149 8.43928 -0.000716329 8.32982 1.87995e-05C8.22036 0.000753928 8.11212 0.023041 8.01128 0.0656075C7.91043 0.108174 7.81896 0.170187 7.74208 0.248104C7.66521 0.326022 7.60443 0.418319 7.56322 0.519725C7.52201 0.621132 7.50118 0.729662 7.50191 0.839119C7.50265 0.948576 7.52494 1.05682 7.5675 1.15766C7.61007 1.2585 7.67208 1.34998 7.75 1.42685L12.225 5.83685H0.833333C0.61232 5.83685 0.400358 5.92465 0.244078 6.08093C0.0877973 6.23721 0 6.44917 0 6.67019C0 6.8912 0.0877973 7.10316 0.244078 7.25944C0.400358 7.41572 0.61232 7.50352 0.833333 7.50352H12.2208L7.75 11.9077C7.60051 12.0644 7.51787 12.2731 7.51961 12.4896C7.52135 12.7062 7.60731 12.9136 7.7593 13.0678C7.91129 13.2221 8.11736 13.3111 8.33386 13.3161C8.55036 13.321 8.76028 13.2415 8.91917 13.0944L14.69 7.40935C14.7883 7.31245 14.8663 7.19698 14.9195 7.06965C14.9728 6.94233 15.0002 6.8057 15.0002 6.66769C15.0002 6.52968 14.9728 6.39304 14.9195 6.26572C14.8663 6.1384 14.7883 6.02293 14.69 5.92602L8.92083 0.240188Z" fill="white"/>
</svg>
