<svg width="20" height="20" viewBox="0 0 20 20" fill="none" xmlns="http://www.w3.org/2000/svg">
<path d="M11.4208 3.57002C11.3429 3.49314 11.2506 3.43237 11.1492 3.39116C11.0478 3.34995 10.9393 3.32912 10.8298 3.32985C10.7204 3.33059 10.6121 3.35287 10.5113 3.39544C10.4104 3.43801 10.319 3.50002 10.2421 3.57794C10.1652 3.65586 10.1044 3.74815 10.0632 3.84956C10.022 3.95097 10.0012 4.0595 10.0019 4.16895C10.0026 4.27841 10.0249 4.38665 10.0675 4.48749C10.1101 4.58834 10.1721 4.67981 10.25 4.75669L14.725 9.16669H3.33333C3.11232 9.16669 2.90036 9.25449 2.74408 9.41077C2.5878 9.56705 2.5 9.77901 2.5 10C2.5 10.221 2.5878 10.433 2.74408 10.5893C2.90036 10.7456 3.11232 10.8334 3.33333 10.8334H14.7208L10.25 15.2375C10.1005 15.3942 10.0179 15.6029 10.0196 15.8195C10.0213 16.036 10.1073 16.2434 10.2593 16.3977C10.4113 16.5519 10.6174 16.641 10.8339 16.6459C11.0504 16.6509 11.2603 16.5713 11.4192 16.4242L17.19 10.7392C17.2883 10.6423 17.3663 10.5268 17.4195 10.3995C17.4728 10.2722 17.5002 10.1355 17.5002 9.99752C17.5002 9.85951 17.4728 9.72288 17.4195 9.59555C17.3663 9.46823 17.2883 9.35276 17.19 9.25586L11.4208 3.57002Z" fill="#222F30"/>
</svg>
