<svg width="14" height="15" viewBox="0 0 14 15" fill="none" xmlns="http://www.w3.org/2000/svg">
<path d="M0.240188 6.07941C0.16331 6.15733 0.102531 6.24963 0.0613232 6.35103C0.0201149 6.45244 -0.000716329 6.56097 1.87995e-05 6.67042C0.000753928 6.77988 0.023041 6.88812 0.0656075 6.98897C0.108174 7.08981 0.170187 7.18128 0.248104 7.25816C0.326022 7.33504 0.418319 7.39582 0.519725 7.43702C0.621132 7.47823 0.729662 7.49906 0.839119 7.49833C0.948576 7.49759 1.05682 7.47531 1.15766 7.43274C1.2585 7.39017 1.34998 7.32816 1.42685 7.25024L5.83685 2.77524L5.83685 14.1669C5.83685 14.3879 5.92465 14.5999 6.08093 14.7562C6.23721 14.9124 6.44917 15.0002 6.67019 15.0002C6.8912 15.0002 7.10316 14.9124 7.25944 14.7562C7.41572 14.5999 7.50352 14.3879 7.50352 14.1669L7.50352 2.77941L11.9077 7.25024C12.0644 7.39974 12.2731 7.48237 12.4896 7.48063C12.7062 7.4789 12.9136 7.39293 13.0678 7.24094C13.2221 7.08896 13.3111 6.88289 13.3161 6.66639C13.321 6.44989 13.2415 6.23996 13.0944 6.08108L7.40935 0.310244C7.31245 0.211979 7.19698 0.133952 7.06965 0.0806952C6.94233 0.0274382 6.8057 1.33514e-05 6.66769 1.33514e-05C6.52968 1.33514e-05 6.39304 0.0274382 6.26572 0.0806952C6.1384 0.133952 6.02293 0.211979 5.92602 0.310244L0.240188 6.07941Z" fill="#222F30"/>
</svg>
